<svg width="24.000000" height="24.000000" viewBox="0 0 24 24" fill="none" xmlns="http://www.w3.org/2000/svg" xmlns:xlink="http://www.w3.org/1999/xlink">
	<desc>
			Created with Pixso.
	</desc>
	<defs/>
	<path id="linkedin" d="M5.50031 6C4.67151 6 4 5.32812 4 4.49951C4 3.67188 4.67151 3 5.50031 3C6.32849 3 7 3.67188 7 4.49951C7.00061 5.32812 6.32849 6 5.50031 6ZM16.9231 19L20 19L20 12.2417C20 9.38184 18.3938 8 16.2177 8C14.0423 8 13.0769 9.7627 13.0769 9.7627L13.0769 8.59229L10 8.59229L10 19L13.0769 19L13.0769 13.3965C13.0769 11.8955 13.8315 11.002 15.1031 11.002C16.2715 11.002 16.9231 11.8594 16.9231 13.3965L16.9231 19ZM7 19L4 19L4 9L7 9L7 19Z" clip-rule="evenodd" fill="#FFFFFF" fill-opacity="1.000000" fill-rule="evenodd"/>
</svg>
