<svg width="24.000000" height="24.000000" viewBox="0 0 24 24" fill="none" xmlns="http://www.w3.org/2000/svg" xmlns:xlink="http://www.w3.org/1999/xlink">
	<desc>
			Created with Pixso.
	</desc>
	<defs/>
	<path id="google" d="M18.8751 10.6025L12.1479 10.6025C12.1479 11.3022 12.1479 12.7017 12.1436 13.4014L16.0418 13.4014C15.8924 14.1006 15.3628 15.0801 14.6145 15.5732C14.6138 15.5728 14.6131 15.5776 14.6116 15.5771C13.6167 16.2339 12.3037 16.3828 11.3288 16.187C9.80069 15.8833 8.59135 14.7754 8.10032 13.3677C8.10317 13.3652 8.10532 13.3457 8.10746 13.3442C7.80013 12.4712 7.80013 11.3022 8.10746 10.6025L8.10675 10.6025C8.50272 9.31689 9.74851 8.14355 11.2788 7.82227C12.5096 7.56152 13.8983 7.84424 14.9197 8.7998C15.0555 8.66699 16.7995 6.96387 16.9303 6.82568C13.4409 3.66553 7.85373 4.77686 5.76311 8.85791L5.76239 8.85791C5.76239 8.85791 5.76311 8.85791 5.75882 8.86572C4.72458 10.8701 4.76746 13.2319 5.76596 15.1401C5.76311 15.1426 5.76096 15.144 5.75882 15.146C6.66368 16.9019 8.31045 18.2485 10.2946 18.7617C12.4024 19.314 15.0848 18.9365 16.8817 17.311C16.8824 17.312 16.8831 17.3125 16.8838 17.3135C18.4062 15.9419 19.354 13.606 18.8751 10.6025Z" fill="#FFFFFF" fill-opacity="1.000000" fill-rule="evenodd"/>
</svg>
